<?xml version="1.0" encoding="utf-8"?>
<!-- Generator: Adobe Illustrator 27.5.0, SVG Export Plug-In . SVG Version: 6.00 Build 0)  -->
<svg version="1.1" id="Layer_1" xmlns="http://www.w3.org/2000/svg" xmlns:xlink="http://www.w3.org/1999/xlink" x="0px" y="0px"
	 viewBox="0 0 5657 4000" style="enable-background:new 0 0 5657 4000;" xml:space="preserve">
<g>
	<rect style="fill-rule:evenodd;clip-rule:evenodd;fill:#BFE6ED;" width="5657" height="4000"/>
	<path style="fill:#E6E6E6;" d="M2521.639,0c-216.609,491.467-457.648,477.665-671.054,393.024
		c-43.978-17.46-88.18-38.518-130.682-58.765c-141.998-67.654-266.125-126.784-360.633-39.539l-0.317,0.318
		c-98.439,96.184-70.938,179.358,8.713,260.886c45.295,46.353,107.444,91.464,172.057,138.375
		c125.054,90.766,259.809,188.599,287.645,307.087c45.53,193.746-39.53,261.744-160.407,290.17
		c-57.623,13.541-123.64,18.708-188.108,23.719c-154.365,12.008-300.465,23.397-324.804,145.701
		c-19.381,97.387-66.491,215.464-141.217,313.178c-49.513,64.777-111.146,120.504-184.659,154.983
		c-73.112,34.29-158.499,47.715-256.12,28.289c-92.979-18.502-197.206-66.807-312.663-155.094l-20.351,26.675
		c119.836,91.629,228.787,141.93,326.594,161.385c105.116,20.926,197.441,6.293,276.743-30.921
		c78.891-36.996,144.624-96.29,197.135-164.957c78.067-102.1,127.268-225.418,147.504-327.107
		c19.334-97.221,153.067-107.649,294.329-118.625c65.836-5.133,133.256-10.398,193.251-24.495
		c139.186-32.71,237.256-110.317,185.504-330.536c-30.713-130.71-170.728-232.37-300.668-326.669
		c-63.57-46.151-124.704-90.544-167.716-134.547c-65.743-67.272-88.968-135.421-9.697-213.135
		c77.802-71.815,192.377-17.237,323.428,45.197c42.282,20.15,86.284,41.122,132.807,59.573
		C2068.842,515.624,2328.998,531.26,2558.187,0H2521.639z"/>
	<g>
		<defs>
			<path id="SVGID_1_" d="M1121.437,307.055c-250.626,244.925,404.812,400.024,473.085,690.514
				c120.624,513.113-620.439,201.515-673.204,466.622C862.587,1759.331,554.867,2239.979,0,1815.666V0h2318.496
				C1898.983,1057.735,1371.058,76.629,1121.437,307.055"/>
		</defs>
		<clipPath id="SVGID_00000169518026661829026240000017475124000552562351_">
			<use xlink:href="#SVGID_1_"  style="overflow:visible;"/>
		</clipPath>
		
			<linearGradient id="SVGID_00000158023459808175800640000006796993715889350292_" gradientUnits="userSpaceOnUse" x1="1568.8965" y1="1524.6268" x2="109.2491" y2="82.8351">
			<stop  offset="0" style="stop-color:#1FA2FF"/>
			<stop  offset="0.5" style="stop-color:#12D8FA"/>
			<stop  offset="1" style="stop-color:#A6FFCB"/>
		</linearGradient>
		
			<rect style="clip-path:url(#SVGID_00000169518026661829026240000017475124000552562351_);fill:url(#SVGID_00000158023459808175800640000006796993715889350292_);" width="2318.496" height="2239.979"/>
	</g>
	<g>
		<defs>
			<path id="SVGID_00000046302995096472432680000008491514680716338875_" d="M2131.683,578.206
				c106.317-7.833,278.598-240.487,390.864-120.259c160.25,171.664-432.027,770.335-656.462,277.939
				C1828.073,488.241,2027.665,585.891,2131.683,578.206"/>
		</defs>
		<clipPath id="SVGID_00000165923266054002121660000017386063652770402725_">
			<use xlink:href="#SVGID_00000046302995096472432680000008491514680716338875_"  style="overflow:visible;"/>
		</clipPath>
		
			<linearGradient id="SVGID_00000008113567934835929960000000820792892206759079_" gradientUnits="userSpaceOnUse" x1="3087.1724" y1="1063.3876" x2="1774.0895" y2="620.7335">
			<stop  offset="0" style="stop-color:#1FA2FF"/>
			<stop  offset="0.5" style="stop-color:#12D8FA"/>
			<stop  offset="1" style="stop-color:#A6FFCB"/>
		</linearGradient>
		
			<rect x="1828.073" y="337.719" style="clip-path:url(#SVGID_00000165923266054002121660000017386063652770402725_);fill:url(#SVGID_00000008113567934835929960000000820792892206759079_);" width="854.724" height="890.562"/>
	</g>
	<g>
		<defs>
			<path id="SVGID_00000127755614501703932250000015793692815552629919_" d="M646.231,0
				C769.21,89.429,896.857,186.078,924.967,305.686c120.624,513.113-620.439,201.513-673.204,466.622
				C223.884,912.39,139.87,1094.207,0,1201.275V0H646.231z"/>
		</defs>
		<clipPath id="SVGID_00000160155088584882636620000010707021566890276484_">
			<use xlink:href="#SVGID_00000127755614501703932250000015793692815552629919_"  style="overflow:visible;"/>
		</clipPath>
		
			<linearGradient id="SVGID_00000054964660907745912920000008990050739353456829_" gradientUnits="userSpaceOnUse" x1="768.0274" y1="873.9258" x2="-9.0386" y2="7.9566">
			<stop  offset="0" style="stop-color:#1FA2FF"/>
			<stop  offset="0.5" style="stop-color:#12D8FA"/>
			<stop  offset="1" style="stop-color:#A6FFCB"/>
		</linearGradient>
		
			<rect style="clip-path:url(#SVGID_00000160155088584882636620000010707021566890276484_);fill:url(#SVGID_00000054964660907745912920000008990050739353456829_);" width="1045.591" height="1201.275"/>
	</g>
	<path style="fill:#E6E6E6;" d="M1602.263,4000c-137.635-312.281-290.788-303.509-426.387-249.72
		c-27.95,11.093-56.031,24.473-83.036,37.334c-90.237,42.981-169.107,80.561-229.155,25.129l-0.201-0.214
		c-62.548-61.113-45.077-113.963,5.534-165.767c28.777-29.449,68.265-58.111,109.335-87.917
		c79.451-57.68,165.08-119.839,182.762-195.128c28.932-123.104-25.115-166.314-101.921-184.378
		c-36.609-8.605-78.565-11.886-119.519-15.069c-98.089-7.622-190.923-14.869-206.39-92.581
		c-12.315-61.875-42.241-136.908-89.731-198.992c-31.461-41.156-70.612-76.565-117.325-98.475
		c-46.456-21.796-100.72-30.317-162.739-17.979c-59.077,11.756-125.306,42.452-198.672,98.547l-12.936-16.944
		c76.147-58.227,145.382-90.188,207.517-102.545c66.799-13.293,125.455-3.994,175.847,19.646
		c50.135,23.501,91.901,61.178,125.262,104.809c49.611,64.882,80.864,143.236,93.727,207.854
		c12.286,61.769,97.26,68.389,187.025,75.371c41.829,3.26,84.67,6.611,122.785,15.564c88.434,20.783,150.75,70.101,117.864,210.022
		c-19.507,83.05-108.48,147.645-191.039,207.568c-40.396,29.327-79.242,57.532-106.57,85.486
		c-41.777,42.75-56.529,86.051-6.161,135.432c49.432,45.635,122.231,10.955,205.509-28.725
		c26.864-12.798,54.818-26.128,84.382-37.841c146.514-58.111,311.823-68.055,457.451,269.514H1602.263z"/>
	<g>
		<defs>
			<path id="SVGID_00000127015574721124070300000014179028396016378245_" d="M712.565,3804.897
				c-159.25-155.623,257.224-254.173,300.604-438.755c76.646-326.033-394.237-128.04-427.756-296.498
				C548.086,2882.124,352.564,2576.713,0,2846.313V4000h1473.18C1206.623,3327.922,871.179,3951.306,712.565,3804.897"/>
		</defs>
		<clipPath id="SVGID_00000032622430287901338830000017952128126132029082_">
			<use xlink:href="#SVGID_00000127015574721124070300000014179028396016378245_"  style="overflow:visible;"/>
		</clipPath>
		
			<linearGradient id="SVGID_00000088123434215389707340000015401336690109998220_" gradientUnits="userSpaceOnUse" x1="997.0006" y1="3031.1824" x2="69.2845" y2="3947.3677">
			<stop  offset="0" style="stop-color:#1FA2FF"/>
			<stop  offset="0.5" style="stop-color:#12D8FA"/>
			<stop  offset="1" style="stop-color:#A6FFCB"/>
		</linearGradient>
		
			<rect y="2576.713" style="clip-path:url(#SVGID_00000032622430287901338830000017952128126132029082_);fill:url(#SVGID_00000088123434215389707340000015401336690109998220_);" width="1473.18" height="1423.287"/>
	</g>
	<g>
		<defs>
			<path id="SVGID_00000079482990424868226970000008950347238422465720_" d="M1354.483,3632.613
				c67.558,4.977,177.015,152.801,248.36,76.406c101.824-109.073-274.518-489.476-417.129-176.599
				C1161.569,3689.773,1288.383,3627.718,1354.483,3632.613"/>
		</defs>
		<clipPath id="SVGID_00000057866288190631547560000004902700592651876255_">
			<use xlink:href="#SVGID_00000079482990424868226970000008950347238422465720_"  style="overflow:visible;"/>
		</clipPath>
		
			<linearGradient id="SVGID_00000000909631584477487300000013863793728262256003_" gradientUnits="userSpaceOnUse" x1="1961.3948" y1="3324.3452" x2="1127.4214" y2="3605.5593">
			<stop  offset="0" style="stop-color:#1FA2FF"/>
			<stop  offset="0.5" style="stop-color:#12D8FA"/>
			<stop  offset="1" style="stop-color:#A6FFCB"/>
		</linearGradient>
		
			<rect x="1161.569" y="3219.544" style="clip-path:url(#SVGID_00000057866288190631547560000004902700592651876255_);fill:url(#SVGID_00000000909631584477487300000013863793728262256003_);" width="543.098" height="565.871"/>
	</g>
	<g>
		<defs>
			<path id="SVGID_00000098204505961940745420000004933888796178896260_" d="M410.623,4000
				c78.133-56.822,159.249-118.232,177.111-194.229c76.646-326.031-394.238-128.051-427.756-296.495
				C142.261,3420.271,88.879,3304.732,0,3236.71V4000H410.623z"/>
		</defs>
		<clipPath id="SVGID_00000127762781422833487510000009938127457681908877_">
			<use xlink:href="#SVGID_00000098204505961940745420000004933888796178896260_"  style="overflow:visible;"/>
		</clipPath>
		
			<linearGradient id="SVGID_00000073687244528511349510000016253710175343688113_" gradientUnits="userSpaceOnUse" x1="487.8604" y1="3444.8545" x2="-5.7569" y2="3995.0115">
			<stop  offset="0" style="stop-color:#1FA2FF"/>
			<stop  offset="0.5" style="stop-color:#12D8FA"/>
			<stop  offset="1" style="stop-color:#A6FFCB"/>
		</linearGradient>
		
			<rect y="3236.71" style="clip-path:url(#SVGID_00000127762781422833487510000009938127457681908877_);fill:url(#SVGID_00000073687244528511349510000016253710175343688113_);" width="664.381" height="763.29"/>
	</g>
	<path style="fill:#E6E6E6;" d="M3135.361,4000c216.612-491.465,457.652-477.661,671.054-393.02
		c43.978,17.459,88.181,38.517,130.686,58.763c141.997,67.651,266.122,126.787,360.629,39.542l0.316-0.318
		c98.439-96.186,70.943-179.358-8.708-260.891c-45.299-46.353-107.444-91.459-172.061-138.375
		c-125.053-90.762-259.809-188.594-287.644-307.083c-45.53-193.746,39.529-261.747,160.406-290.174
		c57.626-13.536,123.641-18.704,188.108-23.715c154.369-12.01,300.467-23.396,324.805-145.701
		c19.38-97.389,66.491-215.465,141.216-313.181c49.518-64.775,111.146-120.502,184.659-154.981
		c73.116-34.295,158.502-47.715,256.12-28.294c92.979,18.506,197.206,66.811,312.667,155.099l20.352-26.677
		c-119.836-91.632-228.791-141.928-326.597-161.383c-105.113-20.931-197.44-6.294-276.743,30.916
		c-78.892,37.001-144.623,96.293-197.131,164.957c-78.07,102.103-127.272,225.422-147.503,327.112
		c-19.339,97.217-153.072,107.649-294.332,118.625c-65.836,5.133-133.256,10.398-193.253,24.495
		c-139.182,32.71-237.253,110.317-185.504,330.536c30.714,130.708,170.733,232.367,300.667,326.665
		c63.57,46.155,124.704,90.549,167.716,134.551c65.742,67.272,88.973,135.421,9.701,213.13
		c-77.806,71.82-192.379,17.242-323.433-45.192c-42.282-20.15-86.282-41.122-132.805-59.576
		c-230.587-91.452-490.747-107.086-719.932,424.17H3135.361z"/>
	<g>
		<defs>
			<path id="SVGID_00000014627355636051242410000000321775895420035202_" d="M4535.563,3692.949
				c250.625-244.93-404.809-400.024-473.085-690.514c-120.624-513.115,620.444-201.515,673.204-466.626
				c58.731-295.135,366.451-775.784,921.318-351.476V4000H3338.507C3758.017,2942.27,4285.942,3923.376,4535.563,3692.949"/>
		</defs>
		<clipPath id="SVGID_00000023263317802220088000000003899084259270369450_">
			<use xlink:href="#SVGID_00000014627355636051242410000000321775895420035202_"  style="overflow:visible;"/>
		</clipPath>
		
			<linearGradient id="SVGID_00000163778183483315044000000013126789348282945972_" gradientUnits="userSpaceOnUse" x1="4087.9639" y1="2475.1311" x2="5547.6108" y2="3917.2949">
			<stop  offset="0" style="stop-color:#1FA2FF"/>
			<stop  offset="0.5" style="stop-color:#12D8FA"/>
			<stop  offset="1" style="stop-color:#A6FFCB"/>
		</linearGradient>
		
			<rect x="3338.507" y="1760.025" style="clip-path:url(#SVGID_00000023263317802220088000000003899084259270369450_);fill:url(#SVGID_00000163778183483315044000000013126789348282945972_);" width="2318.493" height="2239.975"/>
	</g>
	<g>
		<defs>
			<path id="SVGID_00000138563696367606470390000008941935438725791374_" d="M3525.317,3421.799
				c-106.317,7.833-278.598,240.484-390.86,120.259c-160.25-171.664,432.027-770.335,656.457-277.944
				C3828.927,3511.764,3629.336,3414.109,3525.317,3421.799"/>
		</defs>
		<clipPath id="SVGID_00000169518894996930479180000009921307519650502320_">
			<use xlink:href="#SVGID_00000138563696367606470390000008941935438725791374_"  style="overflow:visible;"/>
		</clipPath>
		
			<linearGradient id="SVGID_00000111874875177162930310000014737462722297474690_" gradientUnits="userSpaceOnUse" x1="2569.8147" y1="2936.6111" x2="3882.8928" y2="3379.2634">
			<stop  offset="0" style="stop-color:#1FA2FF"/>
			<stop  offset="0.5" style="stop-color:#12D8FA"/>
			<stop  offset="1" style="stop-color:#A6FFCB"/>
		</linearGradient>
		
			<rect x="2974.206" y="2771.723" style="clip-path:url(#SVGID_00000169518894996930479180000009921307519650502320_);fill:url(#SVGID_00000111874875177162930310000014737462722297474690_);" width="854.72" height="890.56"/>
	</g>
	<g>
		<defs>
			<path id="SVGID_00000029735375508801582560000007869180339917639552_" d="M5010.769,4000
				c-122.975-89.425-250.625-186.078-278.736-305.681c-120.624-513.113,620.442-201.515,673.203-466.622
				c27.88-140.084,111.895-321.904,251.764-428.972V4000H5010.769z"/>
		</defs>
		<clipPath id="SVGID_00000057858043397487106600000007527268042790282127_">
			<use xlink:href="#SVGID_00000029735375508801582560000007869180339917639552_"  style="overflow:visible;"/>
		</clipPath>
		
			<linearGradient id="SVGID_00000073693569955728120080000000082706507439578003_" gradientUnits="userSpaceOnUse" x1="4889.2065" y1="3126.2046" x2="5665.9009" y2="3992.1729">
			<stop  offset="0" style="stop-color:#1FA2FF"/>
			<stop  offset="0.5" style="stop-color:#12D8FA"/>
			<stop  offset="1" style="stop-color:#A6FFCB"/>
		</linearGradient>
		
			<rect x="4611.409" y="2798.725" style="clip-path:url(#SVGID_00000057858043397487106600000007527268042790282127_);fill:url(#SVGID_00000073693569955728120080000000082706507439578003_);" width="1045.591" height="1201.275"/>
	</g>
	<path style="fill:#E6E6E6;" d="M4054.742,0c137.63,312.286,290.787,303.513,426.383,249.725
		c27.955-11.093,56.031-24.473,83.036-37.335c90.238-42.981,169.107-80.561,229.156-25.129l0.201,0.209
		c62.547,61.117,45.076,113.966-5.535,165.772c-28.776,29.449-68.265,58.111-109.331,87.917
		c-79.453,57.68-165.082,119.839-182.762,195.124c-28.936,123.109,25.116,166.319,101.917,184.382
		c36.61,8.605,78.565,11.881,119.52,15.069c98.093,7.622,190.923,14.864,206.39,92.581c12.316,61.871,42.242,136.908,89.731,198.993
		c31.466,41.156,70.616,76.56,117.325,98.475c46.459,21.796,100.72,30.314,162.74,17.979
		c59.079-11.759,125.305-42.452,198.674-98.552l12.937,16.949c-76.15,58.227-145.382,90.183-207.52,102.545
		c-66.796,13.293-125.457,3.994-175.845-19.646c-50.139-23.506-91.904-61.179-125.266-104.814
		c-49.611-64.877-80.864-143.236-93.727-207.849c-12.283-61.771-97.26-68.394-187.021-75.371
		c-41.828-3.26-84.668-6.614-122.789-15.564c-88.433-20.783-150.75-70.101-117.859-210.027
		c19.505-83.045,108.479-147.64,191.039-207.568c40.392-29.322,79.238-57.53,106.571-85.481
		c41.772-42.75,56.525-86.055,6.156-135.432c-49.431-45.64-122.227-10.959-205.504,28.721
		c-26.869,12.801-54.822,26.128-84.387,37.846C4342.46,327.627,4177.146,337.574,4031.523,0H4054.742z"/>
	<g>
		<defs>
			<path id="SVGID_00000181789496498752409270000011493415080147052929_" d="M4944.435,195.108
				c159.25,155.623-257.225,254.173-300.601,438.75c-76.649,326.033,394.234,128.042,427.753,296.502
				c37.328,187.52,232.848,492.931,585.413,223.327V0H4183.82C4450.377,672.083,4785.821,48.698,4944.435,195.108"/>
		</defs>
		<clipPath id="SVGID_00000109022114048530936610000017146986865098201476_">
			<use xlink:href="#SVGID_00000181789496498752409270000011493415080147052929_"  style="overflow:visible;"/>
		</clipPath>
		
			<linearGradient id="SVGID_00000027562560231001938220000007419233730144591287_" gradientUnits="userSpaceOnUse" x1="4659.9785" y1="968.8404" x2="5587.6948" y2="52.6553">
			<stop  offset="0" style="stop-color:#1FA2FF"/>
			<stop  offset="0.5" style="stop-color:#12D8FA"/>
			<stop  offset="1" style="stop-color:#A6FFCB"/>
		</linearGradient>
		
			<rect x="4183.82" style="clip-path:url(#SVGID_00000109022114048530936610000017146986865098201476_);fill:url(#SVGID_00000027562560231001938220000007419233730144591287_);" width="1473.18" height="1423.292"/>
	</g>
	<g>
		<defs>
			<path id="SVGID_00000109024103696238855390000013479537958217300366_" d="M4302.518,367.391
				c-67.559-4.977-177.016-152.801-248.356-76.406c-101.825,109.073,274.517,489.474,417.125,176.6
				C4495.435,310.229,4368.617,372.284,4302.518,367.391"/>
		</defs>
		<clipPath id="SVGID_00000183962634979786684560000008798684755943274121_">
			<use xlink:href="#SVGID_00000109024103696238855390000013479537958217300366_"  style="overflow:visible;"/>
		</clipPath>
		
			<linearGradient id="SVGID_00000118357086251431509410000006974078576696255404_" gradientUnits="userSpaceOnUse" x1="3695.5801" y1="675.6678" x2="4529.5527" y2="394.454">
			<stop  offset="0" style="stop-color:#1FA2FF"/>
			<stop  offset="0.5" style="stop-color:#12D8FA"/>
			<stop  offset="1" style="stop-color:#A6FFCB"/>
		</linearGradient>
		
			<rect x="3952.336" y="214.59" style="clip-path:url(#SVGID_00000183962634979786684560000008798684755943274121_);fill:url(#SVGID_00000118357086251431509410000006974078576696255404_);" width="543.098" height="565.868"/>
	</g>
	<g>
		<defs>
			<path id="SVGID_00000179628775190461938370000010053245273203766187_" d="M5246.377,0
				c-78.128,56.826-159.245,118.236-177.108,194.229c-76.645,326.036,394.233,128.051,427.757,296.5
				C5514.74,579.734,5568.125,695.27,5657,763.29V0H5246.377z"/>
		</defs>
		<clipPath id="SVGID_00000045606783214678275030000008021084856356652711_">
			<use xlink:href="#SVGID_00000179628775190461938370000010053245273203766187_"  style="overflow:visible;"/>
		</clipPath>
		
			<linearGradient id="SVGID_00000087383447751385380590000018011156022364512409_" gradientUnits="userSpaceOnUse" x1="5169.1191" y1="555.1707" x2="5662.7373" y2="5.013">
			<stop  offset="0" style="stop-color:#1FA2FF"/>
			<stop  offset="0.5" style="stop-color:#12D8FA"/>
			<stop  offset="1" style="stop-color:#A6FFCB"/>
		</linearGradient>
		
			<rect x="4992.624" style="clip-path:url(#SVGID_00000045606783214678275030000008021084856356652711_);fill:url(#SVGID_00000087383447751385380590000018011156022364512409_);" width="664.376" height="763.29"/>
	</g>
</g>
</svg>
